<?xml version="1.0" encoding="UTF-8" standalone="no"?>
<svg
   xmlns:dc="http://purl.org/dc/elements/1.1/"
   xmlns:cc="http://creativecommons.org/ns#"
   xmlns:rdf="http://www.w3.org/1999/02/22-rdf-syntax-ns#"
   xmlns:svg="http://www.w3.org/2000/svg"
   xmlns="http://www.w3.org/2000/svg"
   xmlns:sodipodi="http://sodipodi.sourceforge.net/DTD/sodipodi-0.dtd"
   xmlns:inkscape="http://www.inkscape.org/namespaces/inkscape"
   sodipodi:docname="thoth-icon.svg"
   inkscape:version="1.0 (6e3e5246a0, 2020-05-07)"
   id="svg72"
   version="1.1"
   viewBox="0 0 79.374998 79.374996"
   height="300"
   width="300">
  <defs
     id="defs66">
    <rect
       id="rect2871"
       height="52.229454"
       width="144.08748"
       y="218.29723"
       x="-61.538643" />
  </defs>
  <sodipodi:namedview
     units="px"
     inkscape:window-maximized="1"
     inkscape:window-y="24"
     inkscape:window-x="61"
     inkscape:window-height="1056"
     inkscape:window-width="1859"
     showgrid="false"
     inkscape:document-rotation="0"
     inkscape:current-layer="g1320"
     inkscape:document-units="mm"
     inkscape:cy="567.37631"
     inkscape:cx="425.07017"
     inkscape:zoom="0.59"
     inkscape:pageshadow="2"
     inkscape:pageopacity="0.0"
     borderopacity="1.0"
     bordercolor="#666666"
     pagecolor="#ffffff"
     id="base" />
  <metadata
     id="metadata69">
    <rdf:RDF>
      <cc:Work
         rdf:about="">
        <dc:format>image/svg+xml</dc:format>
        <dc:type
           rdf:resource="http://purl.org/dc/dcmitype/StillImage" />
        <dc:title></dc:title>
      </cc:Work>
    </rdf:RDF>
  </metadata>
  <g
     id="layer1"
     inkscape:groupmode="layer"
     inkscape:label="Layer 1">
    <g
       id="g1320"
       transform="translate(20.004461,12.807608)">
      <g
         id="g943"
         transform="matrix(0.26458333,0,0,0.26458333,-8.9495501,-6.2272016)">
        <circle
           r="150"
           cy="125.12917"
           cx="108.21766"
           id="path935"
           style="fill:#4cb57d;fill-opacity:1;stroke-width:1.74973;stroke-linecap:round;stroke-linejoin:round" />
        <g
           transform="translate(3.1391243,0.44844633)"
           id="g1306">
          <path
             sodipodi:nodetypes="ccccccccc"
             d="M 80.890112,99.705543 C 76.804321,100.61863 72.312264,98.388718 70.559067,94.58985 69.949612,93.328824 69.633523,91.929152 69.635383,90.528886 v -10.03592 c -0.08457,-4.323851 3.231305,-8.382201 7.47919,-9.176657 4.085791,-0.91309 8.577848,1.316825 10.331045,5.115693 0.609455,1.261026 0.925544,2.660698 0.923684,4.060964 v 10.03592 c 0.08457,4.323851 -3.231305,8.382201 -7.47919,9.176657 z"
             style="fill:#33333f;fill-opacity:1;stroke:none;stroke-width:1;stroke-linecap:round;stroke-linejoin:round;stroke-miterlimit:4;stroke-dasharray:none;stroke-opacity:1"
             id="rect1166" />
          <path
             sodipodi:nodetypes="ccccccccc"
             d="m 142.15466,80.492967 c 0.0846,-4.323851 -3.23131,-8.3822 -7.47919,-9.176656 -4.08579,-0.91309 -8.57785,1.316824 -10.33105,5.115692 -0.60945,1.261026 -0.92554,2.660698 -0.92368,4.060964 v 10.035921 c -0.0846,4.323851 3.23131,8.3822 7.47919,9.176656 4.08579,0.913086 8.57784,-1.316827 10.33104,-5.115692 0.60946,-1.261026 0.92555,-2.660698 0.92369,-4.060964 z"
             style="fill:#33333f;fill-opacity:1;stroke:none;stroke-width:1;stroke-linecap:round;stroke-linejoin:round;stroke-miterlimit:4;stroke-dasharray:none;stroke-opacity:1"
             id="rect1166-2" />
          <path
             sodipodi:nodetypes="ccccccccccccccccccccccc"
             d="M 17.440918,198.19567 C 9.291847,198.3692 2.1113354,191.19343 2.2840246,183.03878 L 2.0089798,105.89502 C 1.3770387,62.032773 31.821689,20.020431 73.785852,7.0661843 84.133755,3.7013376 95.015392,2.0036325 105.89502,2.0036325 c 10.87963,0 21.76127,1.697705 32.10917,5.0625518 41.96416,12.9542467 72.40881,54.9665887 71.77687,98.8288357 -0.0917,25.71459 -0.18334,51.42917 -0.27504,77.14376 0.17268,8.15465 -7.00783,15.33042 -15.1569,15.15689 -8.14907,-0.17353 -15.32958,7.00224 -15.15689,15.15689 0.0961,8.84172 -5.04023,17.41602 -12.8353,21.5656 -15.32066,9.22573 -37.03132,-3.70268 -36.21613,-21.5656 v -42.19419 c -0.1286,-8.54346 4.66076,-16.45534 11.70573,-21.06433 25.54235,-16.50815 35.67595,-52.191602 22.63623,-79.664298 C 154.48981,47.784225 130.73617,32.35648 105.9481,32.646594 81.16003,32.35648 57.406384,47.784224 47.413435,70.429742 c -13.03972,27.472696 -2.906114,63.156148 22.636227,79.664308 6.938911,4.69773 11.739684,12.53446 11.599573,21.06432 l 10e-7,42.19419 c 0.815201,17.86292 -20.895466,30.79133 -36.216124,21.5656 -7.795072,-4.14958 -12.93136,-12.72388 -12.8353,-21.5656 0.172689,-8.15465 -7.007823,-15.33042 -15.156894,-15.15689"
             style="fill:#33333f;fill-opacity:1;stroke:none;stroke-width:2;stroke-linecap:round;stroke-linejoin:round;stroke-miterlimit:4;stroke-dasharray:none;stroke-opacity:1"
             id="path943-3-6-0" />
          <path
             sodipodi:nodetypes="ccccc"
             d="M 106.44661,240.23551 C 101.67958,213.7388 95.885031,163.86629 91.117996,137.36958 c -0.239193,-8.38532 7.574345,-15.80731 15.936864,-15.13717 7.85452,0.24725 14.53498,7.2743 14.37692,15.13717 z"
             style="fill:#33333f;fill-opacity:1;stroke:none;stroke-width:2;stroke-linecap:round;stroke-linejoin:round;stroke-miterlimit:4;stroke-dasharray:none;stroke-opacity:1"
             id="path1228" />
        </g>
      </g>
    </g>
  </g>
</svg>
